<?xml version="1.0" standalone="no"?>
<!DOCTYPE svg PUBLIC "-//W3C//DTD SVG 20010904//EN" "http://www.w3.org/TR/2001/REC-SVG-20010904/DTD/svg10.dtd">
<svg version="1.0" xmlns="http://www.w3.org/2000/svg"
    width="512.000000pt" height="512.000000pt" viewBox="0 0 512.000000 512.000000"
    preserveAspectRatio="xMidYMid meet">

    <g transform="translate(0.000000,512.000000) scale(0.100000,-0.100000)"
        fill="#87CEEB " stroke="none">
        <path
            d="M2509 5001 c-23 -19 -24 -24 -27 -200 l-3 -181 30 -30 c16 -17 39
-30 51 -30 12 0 35 13 51 30 l30 30 -3 181 c-3 176 -4 181 -27 200 -13 10 -36
19 -51 19 -15 0 -38 -9 -51 -19z" />
        <path
            d="M1355 4702 c-34 -7 -55 -33 -55 -69 0 -25 23 -74 81 -174 45 -77 88
-147 96 -155 21 -21 79 -18 103 6 34 34 24 68 -58 213 -101 176 -114 190 -167
179z" />
        <path
            d="M3734 4700 c-27 -11 -37 -24 -131 -179 -88 -143 -98 -176 -63 -211
24 -24 82 -27 103 -6 8 8 53 78 101 155 64 104 86 148 86 174 0 50 -48 84 -96
67z" />
        <path
            d="M2285 4385 c-14 -13 -25 -30 -26 -37 0 -7 -10 -93 -22 -192 l-23
-178 -118 -39 c-65 -21 -160 -61 -211 -88 l-92 -48 -157 118 c-110 84 -164
119 -183 119 -40 0 -383 -343 -383 -383 0 -19 35 -73 119 -183 l118 -157 -49
-92 c-26 -51 -66 -146 -87 -211 l-39 -119 -179 -22 c-98 -12 -184 -22 -191
-22 -7 -1 -24 -12 -37 -26 l-25 -24 0 -241 0 -241 25 -24 c13 -14 30 -25 37
-26 7 0 94 -10 192 -22 l179 -22 34 -105 c18 -58 57 -153 86 -211 l54 -107
-119 -156 c-83 -110 -118 -164 -118 -183 0 -40 343 -383 383 -383 19 0 73 35
182 118 l156 118 127 -63 c70 -34 165 -73 212 -87 l84 -24 23 -178 c12 -99 22
-185 22 -192 1 -7 12 -24 26 -37 l24 -25 241 0 c240 0 241 0 265 24 16 16 25
40 30 77 4 30 14 116 23 193 l17 138 115 39 c63 21 158 60 211 87 l96 49 157
-118 c110 -84 164 -119 183 -119 40 0 383 343 383 382 0 19 -36 75 -119 185
l-120 158 19 30 c60 98 110 220 155 380 1 6 76 19 165 29 203 23 231 30 253
57 15 19 17 48 17 261 l0 239 -25 24 c-13 14 -30 25 -37 26 -7 0 -94 10 -192
22 l-179 23 -39 114 c-21 63 -60 158 -86 211 l-49 97 118 156 c83 109 119 165
119 184 0 39 -343 382 -383 382 -19 0 -73 -35 -182 -118 l-156 -118 -127 63
c-70 34 -165 73 -212 87 l-85 24 -17 138 c-9 77 -19 163 -23 193 -5 37 -14 61
-30 77 -24 24 -25 24 -265 24 l-241 0 -24 -25z m423 -222 c6 -49 16 -131 22
-183 7 -53 18 -104 25 -114 9 -11 48 -27 103 -42 131 -34 239 -78 341 -139 50
-30 98 -55 108 -55 25 0 58 22 203 133 l125 96 107 -106 c66 -66 104 -111 99
-117 -92 -119 -201 -266 -210 -283 -18 -34 -14 -50 32 -126 60 -100 101 -196
141 -333 20 -66 42 -121 52 -129 10 -6 61 -17 113 -24 53 -6 135 -16 184 -23
l87 -11 0 -147 0 -147 -87 -11 c-49 -7 -131 -17 -184 -23 -52 -7 -104 -18
-114 -25 -11 -8 -28 -54 -46 -123 -31 -121 -77 -229 -144 -337 -48 -76 -52
-92 -34 -127 9 -17 118 -164 210 -283 5 -6 -33 -51 -99 -117 l-107 -106 -125
96 c-145 111 -178 133 -203 133 -10 0 -51 -20 -91 -44 -94 -57 -194 -99 -334
-141 -67 -20 -119 -41 -127 -52 -7 -10 -18 -60 -25 -113 -6 -52 -16 -134 -22
-183 l-11 -87 -148 0 c-103 0 -149 3 -149 11 0 6 -10 88 -21 183 -25 205 -25
204 -148 236 -124 31 -228 74 -330 135 -50 30 -98 55 -106 55 -26 0 -52 -17
-198 -129 l-138 -105 -106 107 -107 106 105 137 c116 153 128 171 129 198 0
10 -20 51 -45 91 -54 85 -103 204 -140 335 -39 136 -36 135 -240 159 -93 12
-176 21 -182 21 -10 0 -13 37 -13 150 0 113 3 150 13 150 6 0 89 9 182 21 205
25 201 22 241 164 35 129 81 237 138 329 25 41 46 82 46 92 -1 27 -13 45 -129
198 l-105 137 107 106 106 107 138 -105 c147 -113 172 -129 198 -129 10 0 49
20 89 44 91 57 205 106 331 140 60 17 109 37 121 50 18 18 25 48 43 192 11 95
21 177 21 183 0 8 46 11 149 11 l148 0 11 -87z" />
        <path
            d="M2091 3535 c-95 -27 -165 -85 -192 -160 -10 -26 -26 -43 -64 -64 -93
-53 -152 -142 -158 -239 -2 -35 -11 -60 -29 -83 -35 -47 -54 -87 -62 -133 -5
-27 -20 -52 -50 -80 -65 -63 -91 -126 -91 -216 0 -90 24 -148 90 -212 31 -31
45 -55 50 -83 9 -47 28 -87 63 -134 18 -23 27 -48 29 -83 6 -96 75 -200 167
-248 31 -17 47 -34 56 -58 29 -81 120 -145 234 -165 118 -20 241 32 311 132
l30 43 3 786 c2 527 0 799 -7 823 -16 53 -83 124 -147 154 -69 33 -159 40
-233 20z m169 -160 c15 -8 38 -27 49 -41 21 -27 21 -31 21 -774 0 -743 0 -747
-21 -774 -30 -38 -71 -56 -129 -56 -87 0 -140 40 -140 105 0 35 6 47 40 80 46
45 54 91 20 125 -42 42 -114 16 -169 -61 l-28 -38 -33 34 c-45 46 -53 114 -18
165 32 47 91 78 162 86 37 4 66 14 77 25 28 28 25 80 -6 109 -22 21 -31 22
-87 17 -86 -8 -143 -30 -205 -77 l-53 -40 0 33 c0 18 11 54 26 80 26 50 25 76
-4 110 -20 23 -73 22 -105 -3 l-25 -20 -18 28 c-25 36 -25 108 0 144 l18 28
25 -20 c32 -25 85 -26 105 -2 29 33 30 59 4 109 -15 26 -26 62 -26 80 l0 33
53 -40 c62 -47 119 -69 205 -77 56 -5 65 -4 87 17 31 29 34 81 6 109 -11 11
-40 21 -77 25 -170 19 -240 162 -131 264 l25 23 21 -34 c27 -44 92 -87 131
-87 40 0 70 31 70 73 0 27 -9 41 -44 73 -72 65 -70 118 7 164 39 24 125 27
167 5z" />
        <path
            d="M2864 3541 c-94 -23 -193 -105 -215 -180 -7 -24 -9 -296 -7 -823 l3
-786 30 -43 c44 -63 103 -104 180 -124 57 -16 77 -17 131 -8 114 20 205 84
234 165 9 24 25 41 56 58 92 48 161 152 167 250 2 37 10 61 29 83 35 44 54 85
63 132 5 28 19 52 50 83 66 64 90 122 90 212 0 90 -26 153 -91 216 -30 28 -45
53 -50 80 -8 46 -27 86 -62 133 -17 22 -27 48 -29 78 -1 25 -7 61 -13 79 -18
54 -86 131 -143 164 -39 22 -56 39 -66 65 -43 120 -215 200 -357 166z m163
-171 c77 -46 79 -99 7 -164 -35 -32 -44 -46 -44 -73 0 -42 30 -73 70 -73 39 0
104 43 131 87 l21 34 25 -23 c111 -103 38 -244 -137 -265 -31 -4 -61 -14 -72
-25 -27 -27 -23 -79 7 -108 22 -20 31 -22 85 -17 81 7 149 33 211 80 l52 39
-5 -44 c-3 -23 -17 -61 -32 -83 -29 -42 -29 -74 1 -107 24 -27 81 -23 113 7
l27 26 18 -28 c25 -37 25 -109 0 -146 l-18 -28 -32 31 c-27 26 -39 31 -70 28
-71 -6 -96 -77 -44 -129 25 -25 39 -61 39 -99 l0 -30 -52 40 c-63 47 -120 69
-206 77 -56 5 -65 4 -87 -17 -31 -29 -34 -81 -6 -109 11 -11 40 -21 77 -25 71
-8 130 -39 162 -86 35 -51 27 -119 -18 -165 l-33 -34 -28 38 c-55 77 -127 103
-169 61 -34 -34 -26 -80 20 -125 34 -33 40 -45 40 -80 0 -65 -53 -105 -140
-105 -61 0 -122 30 -139 67 -16 35 -15 1496 1 1526 11 22 39 46 68 59 33 15
125 8 157 -12z" />
        <path
            d="M436 3801 c-23 -25 -23 -76 -1 -101 29 -32 299 -180 328 -180 15 0
36 9 47 20 24 24 27 82 6 103 -8 8 -78 51 -155 96 -150 87 -192 98 -225 62z" />
        <path
            d="M4450 3734 c-80 -47 -148 -91 -152 -97 -4 -7 -8 -27 -8 -44 0 -41 30
-73 68 -73 29 0 289 143 325 179 25 24 25 75 1 102 -34 37 -78 25 -234 -67z" />
        <path
            d="M140 2627 c-51 -26 -51 -108 0 -134 17 -9 78 -13 193 -13 l169 0 29
29 c16 16 29 39 29 51 0 12 -13 35 -29 51 l-29 29 -169 0 c-115 0 -176 -4
-193 -13z" />
        <path
            d="M4590 2611 c-17 -16 -30 -39 -30 -51 0 -12 13 -35 30 -51 l30 -30
181 3 c176 3 181 4 200 27 10 13 19 36 19 51 0 15 -9 38 -19 51 -19 23 -24 24
-200 27 l-181 3 -30 -30z" />
        <path
            d="M595 1515 c-76 -46 -147 -93 -158 -104 -25 -24 -25 -76 -1 -102 34
-38 76 -25 225 67 77 48 147 93 155 101 21 21 18 79 -6 103 -35 35 -68 25
-215 -65z" />
        <path
            d="M4310 1580 c-24 -24 -27 -82 -6 -103 8 -8 78 -53 155 -101 149 -92
191 -105 225 -67 23 25 23 76 2 100 -32 35 -300 191 -329 191 -15 0 -36 -9
-47 -20z" />
        <path
            d="M1477 816 c-8 -8 -51 -78 -96 -155 -87 -150 -98 -192 -62 -225 27
-24 78 -24 102 1 36 36 179 296 179 325 0 15 -9 37 -20 48 -24 24 -82 27 -103
6z" />
        <path
            d="M3540 810 c-11 -11 -20 -32 -20 -47 0 -29 156 -297 191 -329 24 -21
75 -21 100 2 38 34 25 76 -67 225 -48 77 -93 147 -101 155 -21 21 -79 18 -103
-6z" />
        <path
            d="M2509 530 l-30 -30 3 -181 c3 -176 4 -181 27 -200 13 -10 36 -19 51
-19 15 0 38 9 51 19 23 19 24 24 27 200 l3 181 -30 30 c-16 17 -39 30 -51 30
-12 0 -35 -13 -51 -30z" />
    </g>
</svg>